solid Untitled
facet normal -0.0 -0.0 1.0
  outer loop
    vertex -0.3747665940288702 -0.37476659402887025 0.0
    vertex -0.53 -6.490628035480972e-17 0.0
    vertex -0.6716450815301481 -0.19721278978900056 0.0
  endloop
endfacet
facet normal 0.0 0.0 -1.0
  outer loop
    vertex 0.07416407864998734 -0.22825356391083687 -0.13999999999999999
    vertex -0.09962038679129964 -0.6928750093166529 -0.13999999999999999
    vertex -0.45840251376169955 -0.5290247020479807 -0.13999999999999999
  endloop
endfacet
facet normal -0.8412535328311814 0.5406408174555974 0.0
  outer loop
    vertex -0.45840251376169944 0.5290247020479808 0.0
    vertex -0.671645081530148 0.19721278978900078 -0.13999999999999999
    vertex -0.671645081530148 0.19721278978900078 0.0
  endloop
endfacet
facet normal -0.8412535328311814 0.5406408174555974 0.0
  outer loop
    vertex -0.671645081530148 0.19721278978900078 -0.13999999999999999
    vertex -0.45840251376169944 0.5290247020479808 0.0
    vertex -0.45840251376169944 0.5290247020479808 -0.13999999999999999
  endloop
endfacet
facet normal -0.4154150130018865 0.9096319953545183 0.0
  outer loop
    vertex -0.45840251376169944 0.5290247020479808 0.0
    vertex -0.09962038679129949 0.692875009316653 -0.13999999999999999
    vertex -0.45840251376169944 0.5290247020479808 -0.13999999999999999
  endloop
endfacet
facet normal -0.4154150130018865 0.9096319953545183 0.0
  outer loop
    vertex -0.09962038679129949 0.692875009316653 -0.13999999999999999
    vertex -0.45840251376169944 0.5290247020479808 0.0
    vertex -0.09962038679129949 0.692875009316653 0.0
  endloop
endfacet
facet normal 0.14231483827328556 0.9898214418809327 0.0
  outer loop
    vertex -0.09962038679129949 0.692875009316653 0.0
    vertex 0.2907905091013205 0.6367423967481628 -0.13999999999999999
    vertex -0.09962038679129949 0.692875009316653 -0.13999999999999999
  endloop
endfacet
facet normal 0.14231483827328556 0.9898214418809327 0.0
  outer loop
    vertex 0.2907905091013205 0.6367423967481628 -0.13999999999999999
    vertex -0.09962038679129949 0.692875009316653 0.0
    vertex 0.2907905091013205 0.6367423967481628 0.0
  endloop
endfacet
facet normal 0.6548607339452851 0.7557495743542584 0.0
  outer loop
    vertex 0.2907905091013205 0.6367423967481628 0.0
    vertex 0.5888774729818268 0.3784485722189183 -0.13999999999999999
    vertex 0.2907905091013205 0.6367423967481628 -0.13999999999999999
  endloop
endfacet
facet normal 0.6548607339452851 0.7557495743542584 0.0
  outer loop
    vertex 0.5888774729818268 0.3784485722189183 -0.13999999999999999
    vertex 0.2907905091013205 0.6367423967481628 0.0
    vertex 0.5888774729818268 0.3784485722189183 0.0
  endloop
endfacet
facet normal 0.9594929736144975 0.28173255684142967 0.0
  outer loop
    vertex 0.5888774729818268 0.3784485722189183 -0.13999999999999999
    vertex 0.7 0.0 0.0
    vertex 0.7 0.0 -0.13999999999999999
  endloop
endfacet
facet normal 0.9594929736144975 0.28173255684142967 0.0
  outer loop
    vertex 0.7 0.0 0.0
    vertex 0.5888774729818268 0.3784485722189183 -0.13999999999999999
    vertex 0.5888774729818268 0.3784485722189183 0.0
  endloop
endfacet
facet normal 0.9594929736144975 -0.2817325568414297 0.0
  outer loop
    vertex 0.7 0.0 -0.13999999999999999
    vertex 0.5888774729818268 -0.3784485722189182 0.0
    vertex 0.5888774729818268 -0.3784485722189182 -0.13999999999999999
  endloop
endfacet
facet normal 0.9594929736144975 -0.2817325568414297 0.0
  outer loop
    vertex 0.5888774729818268 -0.3784485722189182 0.0
    vertex 0.7 0.0 -0.13999999999999999
    vertex 0.7 0.0 0.0
  endloop
endfacet
facet normal 0.6548607339452851 -0.7557495743542583 0.0
  outer loop
    vertex 0.5888774729818268 -0.3784485722189182 0.0
    vertex 0.2907905091013202 -0.636742396748163 -0.13999999999999999
    vertex 0.5888774729818268 -0.3784485722189182 -0.13999999999999999
  endloop
endfacet
facet normal 0.6548607339452851 -0.7557495743542583 0.0
  outer loop
    vertex 0.2907905091013202 -0.636742396748163 -0.13999999999999999
    vertex 0.5888774729818268 -0.3784485722189182 0.0
    vertex 0.2907905091013202 -0.636742396748163 0.0
  endloop
endfacet
facet normal 0.14231483827328495 -0.9898214418809329 0.0
  outer loop
    vertex 0.2907905091013202 -0.636742396748163 0.0
    vertex -0.09962038679129964 -0.6928750093166529 -0.13999999999999999
    vertex 0.2907905091013202 -0.636742396748163 -0.13999999999999999
  endloop
endfacet
facet normal 0.14231483827328495 -0.9898214418809329 0.0
  outer loop
    vertex -0.09962038679129964 -0.6928750093166529 -0.13999999999999999
    vertex 0.2907905091013202 -0.636742396748163 0.0
    vertex -0.09962038679129964 -0.6928750093166529 0.0
  endloop
endfacet
facet normal -0.4154150130018866 -0.9096319953545184 -0.0
  outer loop
    vertex -0.09962038679129964 -0.6928750093166529 0.0
    vertex -0.45840251376169955 -0.5290247020479807 -0.13999999999999999
    vertex -0.09962038679129964 -0.6928750093166529 -0.13999999999999999
  endloop
endfacet
facet normal -0.4154150130018866 -0.9096319953545184 -0.0
  outer loop
    vertex -0.45840251376169955 -0.5290247020479807 -0.13999999999999999
    vertex -0.09962038679129964 -0.6928750093166529 0.0
    vertex -0.45840251376169955 -0.5290247020479807 0.0
  endloop
endfacet
facet normal -0.8412535328311815 -0.5406408174555973 -0.0
  outer loop
    vertex -0.6716450815301481 -0.19721278978900056 0.0
    vertex -0.45840251376169955 -0.5290247020479807 -0.13999999999999999
    vertex -0.45840251376169955 -0.5290247020479807 0.0
  endloop
endfacet
facet normal -0.8412535328311815 -0.5406408174555973 -0.0
  outer loop
    vertex -0.45840251376169955 -0.5290247020479807 -0.13999999999999999
    vertex -0.6716450815301481 -0.19721278978900056 0.0
    vertex -0.6716450815301481 -0.19721278978900056 -0.13999999999999999
  endloop
endfacet
facet normal -1.0 2.2878568762725776e-16 0.0
  outer loop
    vertex -0.671645081530148 0.19721278978900078 0.0
    vertex -0.6716450815301481 -0.19721278978900056 -0.13999999999999999
    vertex -0.6716450815301481 -0.19721278978900056 0.0
  endloop
endfacet
facet normal -1.0 2.2878568762725776e-16 0.0
  outer loop
    vertex -0.6716450815301481 -0.19721278978900056 -0.13999999999999999
    vertex -0.671645081530148 0.19721278978900078 0.0
    vertex -0.671645081530148 0.19721278978900078 -0.13999999999999999
  endloop
endfacet
facet normal -0.30747102616947675 0.09990339242340635 -0.9462985154001796
  outer loop
    vertex 0.40718847050625473 0.0 -0.3381561788378475
    vertex 0.41082815729997474 -0.2984841279805079 -0.3708505925980888
    vertex 0.32942239255310213 -0.23933937786710535 -0.3381561788378475
  endloop
endfacet
facet normal -0.30747102616947675 0.09990339242340635 -0.9462985154001796
  outer loop
    vertex 0.41082815729997474 -0.2984841279805079 -0.3708505925980888
    vertex 0.40718847050625473 0.0 -0.3381561788378475
    vertex 0.5078115294937453 -8.459899447643692e-18 -0.3708505925980888
  endloop
endfacet
facet normal 0.7824360014318159 -0.2542288679069155 -0.5684730304826778
  outer loop
    vertex 0.41082815729997474 -0.2984841279805079 -0.3708505925980888
    vertex 0.5700000000000002 3.3839597790574767e-17 -0.2852555061315249
    vertex 0.4611396867937201 -0.33503759380670983 -0.2852555061315249
  endloop
endfacet
facet normal 0.7824360014318159 -0.2542288679069155 -0.5684730304826778
  outer loop
    vertex 0.5700000000000002 3.3839597790574767e-17 -0.2852555061315249
    vertex 0.41082815729997474 -0.2984841279805079 -0.3708505925980888
    vertex 0.5078115294937453 -8.459899447643692e-18 -0.3708505925980888
  endloop
endfacet
facet normal 0.7824360014318157 -0.25422886790691535 0.5684730304826782
  outer loop
    vertex 0.5700000000000002 3.3839597790574767e-17 -0.2852555061315249
    vertex 0.41082815729997474 -0.2984841279805079 -0.19966041966496104
    vertex 0.4611396867937201 -0.33503759380670983 -0.2852555061315249
  endloop
endfacet
facet normal 0.7824360014318157 -0.25422886790691535 0.5684730304826782
  outer loop
    vertex 0.41082815729997474 -0.2984841279805079 -0.19966041966496104
    vertex 0.5700000000000002 3.3839597790574767e-17 -0.2852555061315249
    vertex 0.5078115294937453 -1.5509815654013436e-17 -0.19966041966496104
  endloop
endfacet
facet normal -0.3074710261694772 0.09990339242340646 0.9462985154001795
  outer loop
    vertex 0.41082815729997474 -0.2984841279805079 -0.19966041966496104
    vertex 0.40718847050625473 0.0 -0.23235483342520236
    vertex 0.32942239255310213 -0.23933937786710535 -0.23235483342520236
  endloop
endfacet
facet normal -0.3074710261694772 0.09990339242340646 0.9462985154001795
  outer loop
    vertex 0.40718847050625473 0.0 -0.23235483342520236
    vertex 0.41082815729997474 -0.2984841279805079 -0.19966041966496104
    vertex 0.5078115294937453 -1.5509815654013436e-17 -0.19966041966496104
  endloop
endfacet
facet normal -0.19002754472854497 0.2615504769558968 -0.9462985154001796
  outer loop
    vertex 0.32942239255310213 -0.23933937786710535 -0.3381561788378475
    vertex 0.15692239255310203 -0.48295746417483504 -0.3708505925980888
    vertex 0.12582815729997468 -0.3872592482352306 -0.3381561788378475
  endloop
endfacet
facet normal -0.19002754472854497 0.2615504769558968 -0.9462985154001796
  outer loop
    vertex 0.15692239255310203 -0.48295746417483504 -0.3708505925980888
    vertex 0.32942239255310213 -0.23933937786710535 -0.3381561788378475
    vertex 0.41082815729997474 -0.2984841279805079 -0.3708505925980888
  endloop
endfacet
facet normal 0.4835720429064234 -0.6655798171017124 -0.5684730304826777
  outer loop
    vertex 0.4611396867937201 -0.33503759380670983 -0.2852555061315249
    vertex 0.15692239255310203 -0.48295746417483504 -0.3708505925980888
    vertex 0.41082815729997474 -0.2984841279805079 -0.3708505925980888
  endloop
endfacet
facet normal 0.4835720429064234 -0.6655798171017124 -0.5684730304826777
  outer loop
    vertex 0.15692239255310203 -0.48295746417483504 -0.3708505925980888
    vertex 0.4611396867937201 -0.33503759380670983 -0.2852555061315249
    vertex 0.17613968679371989 -0.5421022142882377 -0.2852555061315249
  endloop
endfacet
facet normal 0.48357204290642336 -0.6655798171017124 0.5684730304826776
  outer loop
    vertex 0.41082815729997474 -0.2984841279805079 -0.19966041966496104
    vertex 0.17613968679371989 -0.5421022142882377 -0.2852555061315249
    vertex 0.4611396867937201 -0.33503759380670983 -0.2852555061315249
  endloop
endfacet
facet normal 0.48357204290642336 -0.6655798171017124 0.5684730304826776
  outer loop
    vertex 0.17613968679371989 -0.5421022142882377 -0.2852555061315249
    vertex 0.41082815729997474 -0.2984841279805079 -0.19966041966496104
    vertex 0.15692239255310203 -0.48295746417483504 -0.19966041966496104
  endloop
endfacet
facet normal -0.19002754472854522 0.26155047695589706 0.9462985154001795
  outer loop
    vertex 0.15692239255310203 -0.48295746417483504 -0.19966041966496104
    vertex 0.32942239255310213 -0.23933937786710535 -0.23235483342520236
    vertex 0.12582815729997468 -0.3872592482352306 -0.23235483342520236
  endloop
endfacet
facet normal -0.19002754472854522 0.26155047695589706 0.9462985154001795
  outer loop
    vertex 0.32942239255310213 -0.23933937786710535 -0.23235483342520236
    vertex 0.15692239255310203 -0.48295746417483504 -0.19966041966496104
    vertex 0.41082815729997474 -0.2984841279805079 -0.19966041966496104
  endloop
endfacet
facet normal 0.0 0.32329416906498065 -0.9462985154001796
  outer loop
    vertex -0.1258281572999748 -0.3872592482352306 -0.3381561788378475
    vertex 0.15692239255310203 -0.48295746417483504 -0.3708505925980888
    vertex -0.15692239255310214 -0.48295746417483504 -0.3708505925980888
  endloop
endfacet
facet normal 0.0 0.32329416906498065 -0.9462985154001796
  outer loop
    vertex 0.15692239255310203 -0.48295746417483504 -0.3708505925980888
    vertex -0.1258281572999748 -0.3872592482352306 -0.3381561788378475
    vertex 0.12582815729997468 -0.3872592482352306 -0.3381561788378475
  endloop
endfacet
facet normal 0.0 -0.8227018983895932 -0.5684730304826779
  outer loop
    vertex 0.17613968679371989 -0.5421022142882377 -0.2852555061315249
    vertex -0.15692239255310214 -0.48295746417483504 -0.3708505925980888
    vertex 0.15692239255310203 -0.48295746417483504 -0.3708505925980888
  endloop
endfacet
facet normal 0.0 -0.8227018983895932 -0.5684730304826779
  outer loop
    vertex -0.15692239255310214 -0.48295746417483504 -0.3708505925980888
    vertex 0.17613968679371989 -0.5421022142882377 -0.2852555061315249
    vertex -0.17613968679372008 -0.5421022142882377 -0.2852555061315249
  endloop
endfacet
facet normal 0.0 -0.8227018983895932 0.568473030482678
  outer loop
    vertex 0.15692239255310203 -0.48295746417483504 -0.19966041966496104
    vertex -0.17613968679372008 -0.5421022142882377 -0.2852555061315249
    vertex 0.17613968679371989 -0.5421022142882377 -0.2852555061315249
  endloop
endfacet
facet normal 0.0 -0.8227018983895932 0.568473030482678
  outer loop
    vertex -0.17613968679372008 -0.5421022142882377 -0.2852555061315249
    vertex 0.15692239255310203 -0.48295746417483504 -0.19966041966496104
    vertex -0.15692239255310214 -0.48295746417483504 -0.19966041966496104
  endloop
endfacet
facet normal 0.0 0.32329416906498104 0.9462985154001794
  outer loop
    vertex 0.15692239255310203 -0.48295746417483504 -0.19966041966496104
    vertex -0.1258281572999748 -0.3872592482352306 -0.23235483342520236
    vertex -0.15692239255310214 -0.48295746417483504 -0.19966041966496104
  endloop
endfacet
facet normal 0.0 0.32329416906498104 0.9462985154001794
  outer loop
    vertex -0.1258281572999748 -0.3872592482352306 -0.23235483342520236
    vertex 0.15692239255310203 -0.48295746417483504 -0.19966041966496104
    vertex 0.12582815729997468 -0.3872592482352306 -0.23235483342520236
  endloop
endfacet
facet normal 0.1900275447285452 0.26155047695589656 -0.9462985154001795
  outer loop
    vertex -0.32942239255310213 -0.23933937786710519 -0.3381561788378475
    vertex -0.15692239255310214 -0.48295746417483504 -0.3708505925980888
    vertex -0.41082815729997474 -0.29848412798050766 -0.3708505925980888
  endloop
endfacet
facet normal 0.1900275447285452 0.26155047695589656 -0.9462985154001795
  outer loop
    vertex -0.15692239255310214 -0.48295746417483504 -0.3708505925980888
    vertex -0.32942239255310213 -0.23933937786710519 -0.3381561788378475
    vertex -0.1258281572999748 -0.3872592482352306 -0.3381561788378475
  endloop
endfacet
facet normal -0.4835720429064239 -0.6655798171017119 -0.5684730304826779
  outer loop
    vertex -0.17613968679372008 -0.5421022142882377 -0.2852555061315249
    vertex -0.41082815729997474 -0.29848412798050766 -0.3708505925980888
    vertex -0.15692239255310214 -0.48295746417483504 -0.3708505925980888
  endloop
endfacet
facet normal -0.4835720429064239 -0.6655798171017119 -0.5684730304826779
  outer loop
    vertex -0.41082815729997474 -0.29848412798050766 -0.3708505925980888
    vertex -0.17613968679372008 -0.5421022142882377 -0.2852555061315249
    vertex -0.4611396867937201 -0.33503759380670967 -0.2852555061315249
  endloop
endfacet
facet normal -0.4835720429064239 -0.6655798171017119 0.568473030482678
  outer loop
    vertex -0.15692239255310214 -0.48295746417483504 -0.19966041966496104
    vertex -0.4611396867937201 -0.33503759380670967 -0.2852555061315249
    vertex -0.17613968679372008 -0.5421022142882377 -0.2852555061315249
  endloop
endfacet
facet normal -0.4835720429064239 -0.6655798171017119 0.568473030482678
  outer loop
    vertex -0.4611396867937201 -0.33503759380670967 -0.2852555061315249
    vertex -0.15692239255310214 -0.48295746417483504 -0.19966041966496104
    vertex -0.41082815729997474 -0.29848412798050766 -0.19966041966496104
  endloop
endfacet
facet normal 0.1900275447285455 0.261550476955897 0.9462985154001795
  outer loop
    vertex -0.15692239255310214 -0.48295746417483504 -0.19966041966496104
    vertex -0.32942239255310213 -0.23933937786710519 -0.23235483342520236
    vertex -0.41082815729997474 -0.29848412798050766 -0.19966041966496104
  endloop
endfacet
facet normal 0.1900275447285455 0.261550476955897 0.9462985154001795
  outer loop
    vertex -0.32942239255310213 -0.23933937786710519 -0.23235483342520236
    vertex -0.15692239255310214 -0.48295746417483504 -0.19966041966496104
    vertex -0.1258281572999748 -0.3872592482352306 -0.23235483342520236
  endloop
endfacet
facet normal 0.30747102616947675 0.0999033924234064 -0.9462985154001795
  outer loop
    vertex -0.40718847050625473 9.023892744153272e-17 -0.3381561788378475
    vertex -0.41082815729997474 -0.29848412798050766 -0.3708505925980888
    vertex -0.5078115294937453 0.0 -0.3708505925980888
  endloop
endfacet
facet normal 0.30747102616947675 0.0999033924234064 -0.9462985154001795
  outer loop
    vertex -0.41082815729997474 -0.29848412798050766 -0.3708505925980888
    vertex -0.40718847050625473 9.023892744153272e-17 -0.3381561788378475
    vertex -0.32942239255310213 -0.23933937786710519 -0.3381561788378475
  endloop
endfacet
facet normal -0.7824360014318157 -0.2542288679069153 -0.568473030482678
  outer loop
    vertex -0.5700000000000001 4.511946372076636e-17 -0.2852555061315249
    vertex -0.41082815729997474 -0.29848412798050766 -0.3708505925980888
    vertex -0.4611396867937201 -0.33503759380670967 -0.2852555061315249
  endloop
endfacet
facet normal -0.7824360014318157 -0.2542288679069153 -0.568473030482678
  outer loop
    vertex -0.41082815729997474 -0.29848412798050766 -0.3708505925980888
    vertex -0.5700000000000001 4.511946372076636e-17 -0.2852555061315249
    vertex -0.5078115294937453 0.0 -0.3708505925980888
  endloop
endfacet
facet normal -0.7824360014318157 -0.25422886790691535 0.5684730304826783
  outer loop
    vertex -0.41082815729997474 -0.29848412798050766 -0.19966041966496104
    vertex -0.5700000000000001 4.511946372076636e-17 -0.2852555061315249
    vertex -0.4611396867937201 -0.33503759380670967 -0.2852555061315249
  endloop
endfacet
facet normal -0.7824360014318157 -0.25422886790691535 0.5684730304826783
  outer loop
    vertex -0.5700000000000001 4.511946372076636e-17 -0.2852555061315249
    vertex -0.41082815729997474 -0.29848412798050766 -0.19966041966496104
    vertex -0.5078115294937453 0.0 -0.19966041966496104
  endloop
endfacet
facet normal 0.30747102616947714 0.09990339242340653 0.9462985154001795
  outer loop
    vertex -0.41082815729997474 -0.29848412798050766 -0.19966041966496104
    vertex -0.40718847050625473 9.023892744153272e-17 -0.23235483342520236
    vertex -0.5078115294937453 0.0 -0.19966041966496104
  endloop
endfacet
facet normal 0.30747102616947714 0.09990339242340653 0.9462985154001795
  outer loop
    vertex -0.40718847050625473 9.023892744153272e-17 -0.23235483342520236
    vertex -0.41082815729997474 -0.29848412798050766 -0.19966041966496104
    vertex -0.32942239255310213 -0.23933937786710519 -0.23235483342520236
  endloop
endfacet
facet normal 0.30747102616947686 -0.0999033924234064 -0.9462985154001795
  outer loop
    vertex -0.41082815729997474 0.2984841279805078 -0.3708505925980888
    vertex -0.40718847050625473 9.023892744153272e-17 -0.3381561788378475
    vertex -0.5078115294937453 0.0 -0.3708505925980888
  endloop
endfacet
facet normal 0.30747102616947686 -0.0999033924234064 -0.9462985154001795
  outer loop
    vertex -0.40718847050625473 9.023892744153272e-17 -0.3381561788378475
    vertex -0.41082815729997474 0.2984841279805078 -0.3708505925980888
    vertex -0.32942239255310213 0.23933937786710527 -0.3381561788378475
  endloop
endfacet
facet normal -0.7824360014318159 0.2542288679069155 -0.568473030482678
  outer loop
    vertex -0.5700000000000001 4.511946372076636e-17 -0.2852555061315249
    vertex -0.41082815729997474 0.2984841279805078 -0.3708505925980888
    vertex -0.5078115294937453 0.0 -0.3708505925980888
  endloop
endfacet
facet normal -0.7824360014318159 0.2542288679069155 -0.568473030482678
  outer loop
    vertex -0.41082815729997474 0.2984841279805078 -0.3708505925980888
    vertex -0.5700000000000001 4.511946372076636e-17 -0.2852555061315249
    vertex -0.4611396867937201 0.3350375938067098 -0.2852555061315249
  endloop
endfacet
facet normal -0.7824360014318158 0.2542288679069154 0.5684730304826779
  outer loop
    vertex -0.41082815729997474 0.2984841279805078 -0.19966041966496104
    vertex -0.5700000000000001 4.511946372076636e-17 -0.2852555061315249
    vertex -0.5078115294937453 0.0 -0.19966041966496104
  endloop
endfacet
facet normal -0.7824360014318158 0.2542288679069154 0.5684730304826779
  outer loop
    vertex -0.5700000000000001 4.511946372076636e-17 -0.2852555061315249
    vertex -0.41082815729997474 0.2984841279805078 -0.19966041966496104
    vertex -0.4611396867937201 0.3350375938067098 -0.2852555061315249
  endloop
endfacet
facet normal 0.30747102616947714 -0.09990339242340653 0.9462985154001795
  outer loop
    vertex -0.40718847050625473 9.023892744153272e-17 -0.23235483342520236
    vertex -0.41082815729997474 0.2984841279805078 -0.19966041966496104
    vertex -0.5078115294937453 0.0 -0.19966041966496104
  endloop
endfacet
facet normal 0.30747102616947714 -0.09990339242340653 0.9462985154001795
  outer loop
    vertex -0.41082815729997474 0.2984841279805078 -0.19966041966496104
    vertex -0.40718847050625473 9.023892744153272e-17 -0.23235483342520236
    vertex -0.32942239255310213 0.23933937786710527 -0.23235483342520236
  endloop
endfacet
facet normal 0.19002754472854505 -0.2615504769558968 -0.9462985154001796
  outer loop
    vertex -0.15692239255310217 0.482957464174835 -0.3708505925980888
    vertex -0.32942239255310213 0.23933937786710527 -0.3381561788378475
    vertex -0.41082815729997474 0.2984841279805078 -0.3708505925980888
  endloop
endfacet
facet normal 0.19002754472854505 -0.2615504769558968 -0.9462985154001796
  outer loop
    vertex -0.32942239255310213 0.23933937786710527 -0.3381561788378475
    vertex -0.15692239255310217 0.482957464174835 -0.3708505925980888
    vertex -0.12582815729997476 0.38725924823523056 -0.3381561788378475
  endloop
endfacet
facet normal -0.48357204290642347 0.665579817101712 -0.5684730304826782
  outer loop
    vertex -0.4611396867937201 0.3350375938067098 -0.2852555061315249
    vertex -0.15692239255310217 0.482957464174835 -0.3708505925980888
    vertex -0.41082815729997474 0.2984841279805078 -0.3708505925980888
  endloop
endfacet
facet normal -0.48357204290642347 0.665579817101712 -0.5684730304826782
  outer loop
    vertex -0.15692239255310217 0.482957464174835 -0.3708505925980888
    vertex -0.4611396867937201 0.3350375938067098 -0.2852555061315249
    vertex -0.17613968679372008 0.5421022142882376 -0.2852555061315249
  endloop
endfacet
facet normal -0.48357204290642347 0.665579817101712 0.5684730304826782
  outer loop
    vertex -0.41082815729997474 0.2984841279805078 -0.19966041966496104
    vertex -0.17613968679372008 0.5421022142882376 -0.2852555061315249
    vertex -0.4611396867937201 0.3350375938067098 -0.2852555061315249
  endloop
endfacet
facet normal -0.48357204290642347 0.665579817101712 0.5684730304826782
  outer loop
    vertex -0.17613968679372008 0.5421022142882376 -0.2852555061315249
    vertex -0.41082815729997474 0.2984841279805078 -0.19966041966496104
    vertex -0.15692239255310217 0.482957464174835 -0.19966041966496104
  endloop
endfacet
facet normal 0.1900275447285453 -0.2615504769558971 0.9462985154001794
  outer loop
    vertex -0.32942239255310213 0.23933937786710527 -0.23235483342520236
    vertex -0.15692239255310217 0.482957464174835 -0.19966041966496104
    vertex -0.41082815729997474 0.2984841279805078 -0.19966041966496104
  endloop
endfacet
facet normal 0.1900275447285453 -0.2615504769558971 0.9462985154001794
  outer loop
    vertex -0.15692239255310217 0.482957464174835 -0.19966041966496104
    vertex -0.32942239255310213 0.23933937786710527 -0.23235483342520236
    vertex -0.12582815729997476 0.38725924823523056 -0.23235483342520236
  endloop
endfacet
facet normal 0.0 -0.32329416906498076 -0.9462985154001796
  outer loop
    vertex 0.15692239255310206 0.482957464174835 -0.3708505925980888
    vertex -0.12582815729997476 0.38725924823523056 -0.3381561788378475
    vertex -0.15692239255310217 0.482957464174835 -0.3708505925980888
  endloop
endfacet
facet normal 0.0 -0.32329416906498076 -0.9462985154001796
  outer loop
    vertex -0.12582815729997476 0.38725924823523056 -0.3381561788378475
    vertex 0.15692239255310206 0.482957464174835 -0.3708505925980888
    vertex 0.1258281572999747 0.38725924823523056 -0.3381561788378475
  endloop
endfacet
facet normal 0.0 0.8227018983895932 -0.5684730304826778
  outer loop
    vertex -0.17613968679372008 0.5421022142882376 -0.2852555061315249
    vertex 0.15692239255310206 0.482957464174835 -0.3708505925980888
    vertex -0.15692239255310217 0.482957464174835 -0.3708505925980888
  endloop
endfacet
facet normal 0.0 0.8227018983895932 -0.5684730304826778
  outer loop
    vertex 0.15692239255310206 0.482957464174835 -0.3708505925980888
    vertex -0.17613968679372008 0.5421022142882376 -0.2852555061315249
    vertex 0.17613968679372 0.5421022142882376 -0.2852555061315249
  endloop
endfacet
facet normal 0.0 0.8227018983895932 0.5684730304826778
  outer loop
    vertex -0.15692239255310217 0.482957464174835 -0.19966041966496104
    vertex 0.17613968679372 0.5421022142882376 -0.2852555061315249
    vertex -0.17613968679372008 0.5421022142882376 -0.2852555061315249
  endloop
endfacet
facet normal 0.0 0.8227018983895932 0.5684730304826778
  outer loop
    vertex 0.17613968679372 0.5421022142882376 -0.2852555061315249
    vertex -0.15692239255310217 0.482957464174835 -0.19966041966496104
    vertex 0.15692239255310206 0.482957464174835 -0.19966041966496104
  endloop
endfacet
facet normal 0.0 -0.3232941690649812 0.9462985154001794
  outer loop
    vertex -0.12582815729997476 0.38725924823523056 -0.23235483342520236
    vertex 0.15692239255310206 0.482957464174835 -0.19966041966496104
    vertex -0.15692239255310217 0.482957464174835 -0.19966041966496104
  endloop
endfacet
facet normal 0.0 -0.3232941690649812 0.9462985154001794
  outer loop
    vertex 0.15692239255310206 0.482957464174835 -0.19966041966496104
    vertex -0.12582815729997476 0.38725924823523056 -0.23235483342520236
    vertex 0.1258281572999747 0.38725924823523056 -0.23235483342520236
  endloop
endfacet
facet normal -0.1900275447285453 -0.26155047695589695 -0.9462985154001794
  outer loop
    vertex 0.15692239255310206 0.482957464174835 -0.3708505925980888
    vertex 0.32942239255310213 0.23933937786710519 -0.3381561788378475
    vertex 0.1258281572999747 0.38725924823523056 -0.3381561788378475
  endloop
endfacet
facet normal -0.1900275447285453 -0.26155047695589695 -0.9462985154001794
  outer loop
    vertex 0.32942239255310213 0.23933937786710519 -0.3381561788378475
    vertex 0.15692239255310206 0.482957464174835 -0.3708505925980888
    vertex 0.4108281572999747 0.2984841279805076 -0.3708505925980888
  endloop
endfacet
facet normal 0.48357204290642375 0.6655798171017118 -0.5684730304826783
  outer loop
    vertex 0.17613968679372 0.5421022142882376 -0.2852555061315249
    vertex 0.4108281572999747 0.2984841279805076 -0.3708505925980888
    vertex 0.15692239255310206 0.482957464174835 -0.3708505925980888
  endloop
endfacet
facet normal 0.48357204290642375 0.6655798171017118 -0.5684730304826783
  outer loop
    vertex 0.4108281572999747 0.2984841279805076 -0.3708505925980888
    vertex 0.17613968679372 0.5421022142882376 -0.2852555061315249
    vertex 0.4611396867937199 0.33503759380670967 -0.2852555061315249
  endloop
endfacet
facet normal 0.4835720429064236 0.6655798171017118 0.5684730304826782
  outer loop
    vertex 0.15692239255310206 0.482957464174835 -0.19966041966496104
    vertex 0.4611396867937199 0.33503759380670967 -0.2852555061315249
    vertex 0.17613968679372 0.5421022142882376 -0.2852555061315249
  endloop
endfacet
facet normal 0.4835720429064236 0.6655798171017118 0.5684730304826782
  outer loop
    vertex 0.4611396867937199 0.33503759380670967 -0.2852555061315249
    vertex 0.15692239255310206 0.482957464174835 -0.19966041966496104
    vertex 0.4108281572999747 0.2984841279805076 -0.19966041966496104
  endloop
endfacet
facet normal -0.1900275447285456 -0.26155047695589734 0.9462985154001794
  outer loop
    vertex 0.32942239255310213 0.23933937786710519 -0.23235483342520236
    vertex 0.15692239255310206 0.482957464174835 -0.19966041966496104
    vertex 0.1258281572999747 0.38725924823523056 -0.23235483342520236
  endloop
endfacet
facet normal -0.1900275447285456 -0.26155047695589734 0.9462985154001794
  outer loop
    vertex 0.15692239255310206 0.482957464174835 -0.19966041966496104
    vertex 0.32942239255310213 0.23933937786710519 -0.23235483342520236
    vertex 0.4108281572999747 0.2984841279805076 -0.19966041966496104
  endloop
endfacet
facet normal -0.3074710261694771 -0.09990339242340654 -0.9462985154001796
  outer loop
    vertex 0.4108281572999747 0.2984841279805076 -0.3708505925980888
    vertex 0.40718847050625473 0.0 -0.3381561788378475
    vertex 0.32942239255310213 0.23933937786710519 -0.3381561788378475
  endloop
endfacet
facet normal -0.3074710261694771 -0.09990339242340654 -0.9462985154001796
  outer loop
    vertex 0.40718847050625473 0.0 -0.3381561788378475
    vertex 0.4108281572999747 0.2984841279805076 -0.3708505925980888
    vertex 0.5078115294937453 -8.459899447643692e-18 -0.3708505925980888
  endloop
endfacet
facet normal 0.7824360014318161 0.2542288679069155 -0.5684730304826778
  outer loop
    vertex 0.4108281572999747 0.2984841279805076 -0.3708505925980888
    vertex 0.5700000000000002 3.3839597790574767e-17 -0.2852555061315249
    vertex 0.5078115294937453 -8.459899447643692e-18 -0.3708505925980888
  endloop
endfacet
facet normal 0.7824360014318161 0.2542288679069155 -0.5684730304826778
  outer loop
    vertex 0.5700000000000002 3.3839597790574767e-17 -0.2852555061315249
    vertex 0.4108281572999747 0.2984841279805076 -0.3708505925980888
    vertex 0.4611396867937199 0.33503759380670967 -0.2852555061315249
  endloop
endfacet
facet normal 0.7824360014318161 0.2542288679069155 0.5684730304826778
  outer loop
    vertex 0.5700000000000002 3.3839597790574767e-17 -0.2852555061315249
    vertex 0.4108281572999747 0.2984841279805076 -0.19966041966496104
    vertex 0.5078115294937453 -1.5509815654013436e-17 -0.19966041966496104
  endloop
endfacet
facet normal 0.7824360014318161 0.2542288679069155 0.5684730304826778
  outer loop
    vertex 0.4108281572999747 0.2984841279805076 -0.19966041966496104
    vertex 0.5700000000000002 3.3839597790574767e-17 -0.2852555061315249
    vertex 0.4611396867937199 0.33503759380670967 -0.2852555061315249
  endloop
endfacet
facet normal -0.3074710261694775 -0.09990339242340665 0.9462985154001794
  outer loop
    vertex 0.40718847050625473 0.0 -0.23235483342520236
    vertex 0.4108281572999747 0.2984841279805076 -0.19966041966496104
    vertex 0.32942239255310213 0.23933937786710519 -0.23235483342520236
  endloop
endfacet
facet normal -0.3074710261694775 -0.09990339242340665 0.9462985154001794
  outer loop
    vertex 0.4108281572999747 0.2984841279805076 -0.19966041966496104
    vertex 0.40718847050625473 0.0 -0.23235483342520236
    vertex 0.5078115294937453 -1.5509815654013436e-17 -0.19966041966496104
  endloop
endfacet
facet normal -0.5877852522924728 0.8090169943749478 -4.141359326302664e-17
  outer loop
    vertex 0.12582815729997468 -0.3872592482352306 -0.2852555061315249
    vertex 0.32942239255310213 -0.23933937786710535 -0.3381561788378475
    vertex 0.12582815729997468 -0.3872592482352306 -0.3381561788378475
  endloop
endfacet
facet normal -0.5877852522924728 0.8090169943749478 -4.141359326302664e-17
  outer loop
    vertex 0.32942239255310213 -0.23933937786710535 -0.3381561788378475
    vertex 0.12582815729997468 -0.3872592482352306 -0.2852555061315249
    vertex 0.32942239255310213 -0.23933937786710535 -0.2852555061315249
  endloop
endfacet
facet normal -0.5877852522924728 0.8090169943749478 -4.141359326302664e-17
  outer loop
    vertex 0.32942239255310213 -0.23933937786710535 -0.2852555061315249
    vertex 0.12582815729997468 -0.3872592482352306 -0.2852555061315249
    vertex 0.12582815729997468 -0.3872592482352306 -0.23235483342520236
  endloop
endfacet
facet normal -0.5877852522924728 0.8090169943749478 -4.141359326302664e-17
  outer loop
    vertex 0.32942239255310213 -0.23933937786710535 -0.2852555061315249
    vertex 0.12582815729997468 -0.3872592482352306 -0.23235483342520236
    vertex 0.32942239255310213 -0.23933937786710535 -0.23235483342520236
  endloop
endfacet
facet normal -0.9510565162951536 0.30901699437494723 0.0
  outer loop
    vertex 0.40718847050625473 0.0 -0.23235483342520236
    vertex 0.32942239255310213 -0.23933937786710535 -0.2852555061315249
    vertex 0.32942239255310213 -0.23933937786710535 -0.23235483342520236
  endloop
endfacet
facet normal -0.9510565162951536 0.30901699437494723 0.0
  outer loop
    vertex 0.32942239255310213 -0.23933937786710535 -0.2852555061315249
    vertex 0.40718847050625473 0.0 -0.23235483342520236
    vertex 0.32942239255310213 -0.23933937786710535 -0.3381561788378475
  endloop
endfacet
facet normal -0.9510565162951536 0.30901699437494723 0.0
  outer loop
    vertex 0.32942239255310213 -0.23933937786710535 -0.3381561788378475
    vertex 0.40718847050625473 0.0 -0.23235483342520236
    vertex 0.40718847050625473 0.0 -0.3381561788378475
  endloop
endfacet
facet normal -0.9510565162951536 0.30901699437494723 0.0
  outer loop
    vertex 0.40718847050625473 0.0 -0.3381561788378475
    vertex 0.40718847050625473 0.0 -0.23235483342520236
    vertex 0.40718847050625473 0.0 -0.2852555061315249
  endloop
endfacet
facet normal 0.9510565162951536 -0.30901699437494745 -0.0
  outer loop
    vertex -0.32942239255310213 0.23933937786710527 -0.3381561788378475
    vertex -0.40718847050625473 9.023892744153272e-17 -0.2852555061315249
    vertex -0.40718847050625473 9.023892744153272e-17 -0.3381561788378475
  endloop
endfacet
facet normal 0.9510565162951536 -0.30901699437494745 -0.0
  outer loop
    vertex -0.40718847050625473 9.023892744153272e-17 -0.2852555061315249
    vertex -0.32942239255310213 0.23933937786710527 -0.3381561788378475
    vertex -0.40718847050625473 9.023892744153272e-17 -0.23235483342520236
  endloop
endfacet
facet normal 0.9510565162951536 -0.30901699437494745 -0.0
  outer loop
    vertex -0.40718847050625473 9.023892744153272e-17 -0.23235483342520236
    vertex -0.32942239255310213 0.23933937786710527 -0.3381561788378475
    vertex -0.32942239255310213 0.23933937786710527 -0.23235483342520236
  endloop
endfacet
facet normal 0.9510565162951536 -0.30901699437494745 -0.0
  outer loop
    vertex -0.32942239255310213 0.23933937786710527 -0.23235483342520236
    vertex -0.32942239255310213 0.23933937786710527 -0.3381561788378475
    vertex -0.32942239255310213 0.23933937786710527 -0.2852555061315249
  endloop
endfacet
facet normal 0.587785252292473 -0.8090169943749477 2.942612785476689e-31
  outer loop
    vertex -0.12582815729997476 0.38725924823523056 -0.2852555061315249
    vertex -0.32942239255310213 0.23933937786710527 -0.3381561788378475
    vertex -0.12582815729997476 0.38725924823523056 -0.3381561788378475
  endloop
endfacet
facet normal 0.587785252292473 -0.8090169943749477 2.942612785476689e-31
  outer loop
    vertex -0.32942239255310213 0.23933937786710527 -0.3381561788378475
    vertex -0.12582815729997476 0.38725924823523056 -0.2852555061315249
    vertex -0.32942239255310213 0.23933937786710527 -0.2852555061315249
  endloop
endfacet
facet normal 0.587785252292473 -0.8090169943749477 2.942612785476689e-31
  outer loop
    vertex -0.32942239255310213 0.23933937786710527 -0.2852555061315249
    vertex -0.12582815729997476 0.38725924823523056 -0.2852555061315249
    vertex -0.12582815729997476 0.38725924823523056 -0.23235483342520236
  endloop
endfacet
facet normal 0.587785252292473 -0.8090169943749477 2.942612785476689e-31
  outer loop
    vertex -0.32942239255310213 0.23933937786710527 -0.2852555061315249
    vertex -0.12582815729997476 0.38725924823523056 -0.23235483342520236
    vertex -0.32942239255310213 0.23933937786710527 -0.23235483342520236
  endloop
endfacet
facet normal -0.0 1.0 -0.0
  outer loop
    vertex -0.1258281572999748 -0.3872592482352306 -0.2852555061315249
    vertex 0.12582815729997468 -0.3872592482352306 -0.3381561788378475
    vertex -0.1258281572999748 -0.3872592482352306 -0.3381561788378475
  endloop
endfacet
facet normal -0.0 1.0 -0.0
  outer loop
    vertex 0.12582815729997468 -0.3872592482352306 -0.3381561788378475
    vertex -0.1258281572999748 -0.3872592482352306 -0.2852555061315249
    vertex 0.12582815729997468 -0.3872592482352306 -0.2852555061315249
  endloop
endfacet
facet normal -0.0 1.0 -0.0
  outer loop
    vertex 0.12582815729997468 -0.3872592482352306 -0.2852555061315249
    vertex -0.1258281572999748 -0.3872592482352306 -0.2852555061315249
    vertex -0.1258281572999748 -0.3872592482352306 -0.23235483342520236
  endloop
endfacet
facet normal -0.0 1.0 -0.0
  outer loop
    vertex 0.12582815729997468 -0.3872592482352306 -0.2852555061315249
    vertex -0.1258281572999748 -0.3872592482352306 -0.23235483342520236
    vertex 0.12582815729997468 -0.3872592482352306 -0.23235483342520236
  endloop
endfacet
facet normal 0.5877852522924736 0.8090169943749472 -1.3214360633750445e-32
  outer loop
    vertex -0.32942239255310213 -0.23933937786710519 -0.2852555061315249
    vertex -0.1258281572999748 -0.3872592482352306 -0.3381561788378475
    vertex -0.32942239255310213 -0.23933937786710519 -0.3381561788378475
  endloop
endfacet
facet normal 0.5877852522924736 0.8090169943749472 -1.3214360633750445e-32
  outer loop
    vertex -0.1258281572999748 -0.3872592482352306 -0.3381561788378475
    vertex -0.32942239255310213 -0.23933937786710519 -0.2852555061315249
    vertex -0.1258281572999748 -0.3872592482352306 -0.2852555061315249
  endloop
endfacet
facet normal 0.5877852522924736 0.8090169943749472 -1.3214360633750445e-32
  outer loop
    vertex -0.1258281572999748 -0.3872592482352306 -0.2852555061315249
    vertex -0.32942239255310213 -0.23933937786710519 -0.2852555061315249
    vertex -0.32942239255310213 -0.23933937786710519 -0.23235483342520236
  endloop
endfacet
facet normal 0.5877852522924736 0.8090169943749472 -1.3214360633750445e-32
  outer loop
    vertex -0.1258281572999748 -0.3872592482352306 -0.2852555061315249
    vertex -0.32942239255310213 -0.23933937786710519 -0.23235483342520236
    vertex -0.1258281572999748 -0.3872592482352306 -0.23235483342520236
  endloop
endfacet
facet normal 0.9510565162951536 0.3090169943749474 -0.0
  outer loop
    vertex -0.40718847050625473 9.023892744153272e-17 -0.3381561788378475
    vertex -0.32942239255310213 -0.23933937786710519 -0.2852555061315249
    vertex -0.32942239255310213 -0.23933937786710519 -0.3381561788378475
  endloop
endfacet
facet normal 0.9510565162951536 0.3090169943749474 -0.0
  outer loop
    vertex -0.32942239255310213 -0.23933937786710519 -0.2852555061315249
    vertex -0.40718847050625473 9.023892744153272e-17 -0.3381561788378475
    vertex -0.32942239255310213 -0.23933937786710519 -0.23235483342520236
  endloop
endfacet
facet normal 0.9510565162951536 0.3090169943749474 -0.0
  outer loop
    vertex -0.32942239255310213 -0.23933937786710519 -0.23235483342520236
    vertex -0.40718847050625473 9.023892744153272e-17 -0.3381561788378475
    vertex -0.40718847050625473 9.023892744153272e-17 -0.23235483342520236
  endloop
endfacet
facet normal 0.9510565162951536 0.3090169943749474 -0.0
  outer loop
    vertex -0.40718847050625473 9.023892744153272e-17 -0.23235483342520236
    vertex -0.40718847050625473 9.023892744153272e-17 -0.3381561788378475
    vertex -0.40718847050625473 9.023892744153272e-17 -0.2852555061315249
  endloop
endfacet
facet normal 0.0 -1.0 0.0
  outer loop
    vertex 0.1258281572999747 0.38725924823523056 -0.2852555061315249
    vertex -0.12582815729997476 0.38725924823523056 -0.3381561788378475
    vertex 0.1258281572999747 0.38725924823523056 -0.3381561788378475
  endloop
endfacet
facet normal 0.0 -1.0 0.0
  outer loop
    vertex -0.12582815729997476 0.38725924823523056 -0.3381561788378475
    vertex 0.1258281572999747 0.38725924823523056 -0.2852555061315249
    vertex -0.12582815729997476 0.38725924823523056 -0.2852555061315249
  endloop
endfacet
facet normal 0.0 -1.0 0.0
  outer loop
    vertex -0.12582815729997476 0.38725924823523056 -0.2852555061315249
    vertex 0.1258281572999747 0.38725924823523056 -0.2852555061315249
    vertex 0.1258281572999747 0.38725924823523056 -0.23235483342520236
  endloop
endfacet
facet normal 0.0 -1.0 0.0
  outer loop
    vertex -0.12582815729997476 0.38725924823523056 -0.2852555061315249
    vertex 0.1258281572999747 0.38725924823523056 -0.23235483342520236
    vertex -0.12582815729997476 0.38725924823523056 -0.23235483342520236
  endloop
endfacet
facet normal -0.5877852522924731 -0.8090169943749475 -4.141359326302613e-17
  outer loop
    vertex 0.32942239255310213 0.23933937786710519 -0.2852555061315249
    vertex 0.1258281572999747 0.38725924823523056 -0.3381561788378475
    vertex 0.32942239255310213 0.23933937786710519 -0.3381561788378475
  endloop
endfacet
facet normal -0.5877852522924731 -0.8090169943749475 -4.141359326302613e-17
  outer loop
    vertex 0.1258281572999747 0.38725924823523056 -0.3381561788378475
    vertex 0.32942239255310213 0.23933937786710519 -0.2852555061315249
    vertex 0.1258281572999747 0.38725924823523056 -0.2852555061315249
  endloop
endfacet
facet normal -0.5877852522924731 -0.8090169943749475 -4.141359326302613e-17
  outer loop
    vertex 0.1258281572999747 0.38725924823523056 -0.2852555061315249
    vertex 0.32942239255310213 0.23933937786710519 -0.2852555061315249
    vertex 0.32942239255310213 0.23933937786710519 -0.23235483342520236
  endloop
endfacet
facet normal -0.5877852522924731 -0.8090169943749475 -4.141359326302613e-17
  outer loop
    vertex 0.1258281572999747 0.38725924823523056 -0.2852555061315249
    vertex 0.32942239255310213 0.23933937786710519 -0.23235483342520236
    vertex 0.1258281572999747 0.38725924823523056 -0.23235483342520236
  endloop
endfacet
facet normal -0.9510565162951536 -0.30901699437494745 0.0
  outer loop
    vertex 0.32942239255310213 0.23933937786710519 -0.23235483342520236
    vertex 0.40718847050625473 0.0 -0.2852555061315249
    vertex 0.40718847050625473 0.0 -0.23235483342520236
  endloop
endfacet
facet normal -0.9510565162951536 -0.30901699437494745 0.0
  outer loop
    vertex 0.40718847050625473 0.0 -0.2852555061315249
    vertex 0.32942239255310213 0.23933937786710519 -0.23235483342520236
    vertex 0.40718847050625473 0.0 -0.3381561788378475
  endloop
endfacet
facet normal -0.9510565162951536 -0.30901699437494745 0.0
  outer loop
    vertex 0.40718847050625473 0.0 -0.3381561788378475
    vertex 0.32942239255310213 0.23933937786710519 -0.23235483342520236
    vertex 0.32942239255310213 0.23933937786710519 -0.3381561788378475
  endloop
endfacet
facet normal -0.9510565162951536 -0.30901699437494745 0.0
  outer loop
    vertex 0.32942239255310213 0.23933937786710519 -0.3381561788378475
    vertex 0.32942239255310213 0.23933937786710519 -0.23235483342520236
    vertex 0.32942239255310213 0.23933937786710519 -0.2852555061315249
  endloop
endfacet
facet normal 0.0 0.0 -1.0
  outer loop
    vertex -0.19416407864998741 -0.14106846055019354 -0.13999999999999999
    vertex -0.45840251376169955 -0.5290247020479807 -0.13999999999999999
    vertex -0.6716450815301481 -0.19721278978900056 -0.13999999999999999
  endloop
endfacet
facet normal 0.0 0.0 -1.0
  outer loop
    vertex -0.1941640786499874 0.1410684605501936 -0.13999999999999999
    vertex -0.19416407864998741 -0.14106846055019354 -0.13999999999999999
    vertex -0.671645081530148 0.19721278978900078 -0.13999999999999999
  endloop
endfacet
facet normal 0.0 0.0 -1.0
  outer loop
    vertex -0.19416407864998741 -0.14106846055019354 -0.13999999999999999
    vertex -0.6716450815301481 -0.19721278978900056 -0.13999999999999999
    vertex -0.671645081530148 0.19721278978900078 -0.13999999999999999
  endloop
endfacet
facet normal 0.0 0.0 -1.0
  outer loop
    vertex -0.1941640786499874 0.1410684605501936 -0.13999999999999999
    vertex -0.671645081530148 0.19721278978900078 -0.13999999999999999
    vertex -0.45840251376169944 0.5290247020479808 -0.13999999999999999
  endloop
endfacet
facet normal 0.0 0.0 -1.0
  outer loop
    vertex -0.09962038679129949 0.692875009316653 -0.13999999999999999
    vertex -0.1941640786499874 0.1410684605501936 -0.13999999999999999
    vertex -0.45840251376169944 0.5290247020479808 -0.13999999999999999
  endloop
endfacet
facet normal 0.0 0.0 -1.0
  outer loop
    vertex 0.07416407864998739 0.22825356391083687 -0.13999999999999999
    vertex -0.1941640786499874 0.1410684605501936 -0.13999999999999999
    vertex -0.09962038679129949 0.692875009316653 -0.13999999999999999
  endloop
endfacet
facet normal 0.0 0.0 -1.0
  outer loop
    vertex 0.5888774729818268 -0.3784485722189182 -0.13999999999999999
    vertex 0.2907905091013202 -0.636742396748163 -0.13999999999999999
    vertex 0.07416407864998734 -0.22825356391083687 -0.13999999999999999
  endloop
endfacet
facet normal 0.0 0.0 -1.0
  outer loop
    vertex 0.07416407864998734 -0.22825356391083687 -0.13999999999999999
    vertex -0.45840251376169955 -0.5290247020479807 -0.13999999999999999
    vertex -0.19416407864998741 -0.14106846055019354 -0.13999999999999999
  endloop
endfacet
facet normal 0.0 0.0 -1.0
  outer loop
    vertex 0.2907905091013202 -0.636742396748163 -0.13999999999999999
    vertex -0.09962038679129964 -0.6928750093166529 -0.13999999999999999
    vertex 0.07416407864998734 -0.22825356391083687 -0.13999999999999999
  endloop
endfacet
facet normal 0.0 0.0 -1.0
  outer loop
    vertex 0.5888774729818268 -0.3784485722189182 -0.13999999999999999
    vertex 0.07416407864998734 -0.22825356391083687 -0.13999999999999999
    vertex 0.24000000000000002 0.0 -0.13999999999999999
  endloop
endfacet
facet normal 0.0 0.0 -1.0
  outer loop
    vertex 0.7 0.0 -0.13999999999999999
    vertex 0.5888774729818268 -0.3784485722189182 -0.13999999999999999
    vertex 0.24000000000000002 0.0 -0.13999999999999999
  endloop
endfacet
facet normal 0.0 0.0 -1.0
  outer loop
    vertex 0.5888774729818268 0.3784485722189183 -0.13999999999999999
    vertex 0.07416407864998739 0.22825356391083687 -0.13999999999999999
    vertex 0.2907905091013205 0.6367423967481628 -0.13999999999999999
  endloop
endfacet
facet normal 0.0 0.0 -1.0
  outer loop
    vertex 0.2907905091013205 0.6367423967481628 -0.13999999999999999
    vertex 0.07416407864998739 0.22825356391083687 -0.13999999999999999
    vertex -0.09962038679129949 0.692875009316653 -0.13999999999999999
  endloop
endfacet
facet normal 0.0 0.0 -1.0
  outer loop
    vertex 0.7 0.0 -0.13999999999999999
    vertex 0.24000000000000002 0.0 -0.13999999999999999
    vertex 0.5888774729818268 0.3784485722189183 -0.13999999999999999
  endloop
endfacet
facet normal 0.0 0.0 -1.0
  outer loop
    vertex 0.5888774729818268 0.3784485722189183 -0.13999999999999999
    vertex 0.24000000000000002 0.0 -0.13999999999999999
    vertex 0.07416407864998739 0.22825356391083687 -0.13999999999999999
  endloop
endfacet
facet normal -0.28728474557885975 -0.8841715319496372 -0.36838590777542224
  outer loop
    vertex -0.19416407864998741 -0.14106846055019354 -0.13999999999999999
    vertex 0.0 0.0 -0.63
    vertex 0.07416407864998734 -0.22825356391083687 -0.13999999999999999
  endloop
endfacet
facet normal 0.7521212283748204 -0.5464480586299394 -0.3683859077754222
  outer loop
    vertex 0.0 0.0 -0.63
    vertex 0.24000000000000002 0.0 -0.13999999999999999
    vertex 0.07416407864998734 -0.22825356391083687 -0.13999999999999999
  endloop
endfacet
facet normal 0.7521212283748204 -0.5464480586299394 -0.3683859077754222
  outer loop
    vertex 0.24000000000000002 0.0 -0.13999999999999999
    vertex 0.0 0.0 -0.63
    vertex 0.16885444597639598 0.0 -0.2852555061315249
  endloop
endfacet
facet normal 0.7521212283748203 0.5464480586299392 -0.3683859077754222
  outer loop
    vertex 0.07416407864998739 0.22825356391083687 -0.13999999999999999
    vertex 0.16885444597639598 0.0 -0.2852555061315249
    vertex 0.0 0.0 -0.63
  endloop
endfacet
facet normal 0.7521212283748203 0.5464480586299392 -0.3683859077754222
  outer loop
    vertex 0.16885444597639598 0.0 -0.2852555061315249
    vertex 0.07416407864998739 0.22825356391083687 -0.13999999999999999
    vertex 0.24000000000000002 0.0 -0.13999999999999999
  endloop
endfacet
facet normal -0.9296729655919216 7.375062340358489e-17 -0.36838590777542213
  outer loop
    vertex -0.1941640786499874 0.1410684605501936 -0.13999999999999999
    vertex 0.0 0.0 -0.63
    vertex -0.19416407864998741 -0.14106846055019354 -0.13999999999999999
  endloop
endfacet
facet normal -0.28728474557885947 0.8841715319496372 -0.36838590777542224
  outer loop
    vertex 0.07416407864998739 0.22825356391083687 -0.13999999999999999
    vertex 0.0 0.0 -0.63
    vertex -0.1941640786499874 0.1410684605501936 -0.13999999999999999
  endloop
endfacet
facet normal -0.0 -0.0 1.0
  outer loop
    vertex -0.05 -6.1232339957367656e-18 0.0
    vertex -0.21213203435596428 0.21213203435596426 0.0
    vertex -0.3 -3.6739403974420595e-17 0.0
  endloop
endfacet
facet normal -0.0 -0.0 1.0
  outer loop
    vertex -0.21213203435596428 0.21213203435596426 0.0
    vertex -0.05 -6.1232339957367656e-18 0.0
    vertex -0.025000000000000022 0.043301270189221926 0.0
  endloop
endfacet
facet normal -0.0 -0.0 1.0
  outer loop
    vertex -5.5109105961630883e-17 0.3 -0.030000000000000002
    vertex -9.735942053221459e-17 0.53 -0.030000000000000002
    vertex -0.21213203435596428 0.21213203435596426 -0.030000000000000002
  endloop
endfacet
facet normal -0.0 -0.0 1.0
  outer loop
    vertex -9.735942053221459e-17 0.53 -0.030000000000000002
    vertex -5.5109105961630883e-17 0.3 -0.030000000000000002
    vertex 0.37476659402887014 0.3747665940288703 -0.030000000000000002
  endloop
endfacet
facet normal -0.9238795325112868 0.3826834323650897 -0.0
  outer loop
    vertex 0.53 0.0 0.0
    vertex 0.37476659402887025 -0.37476659402887025 -0.030000000000000002
    vertex 0.37476659402887025 -0.37476659402887025 0.0
  endloop
endfacet
facet normal -0.9238795325112868 0.3826834323650897 -0.0
  outer loop
    vertex 0.37476659402887025 -0.37476659402887025 -0.030000000000000002
    vertex 0.53 0.0 0.0
    vertex 0.53 0.0 -0.030000000000000002
  endloop
endfacet
facet normal -0.9238795325112868 -0.3826834323650899 -0.0
  outer loop
    vertex 0.37476659402887014 0.3747665940288703 0.0
    vertex 0.53 0.0 -0.030000000000000002
    vertex 0.53 0.0 0.0
  endloop
endfacet
facet normal -0.9238795325112868 -0.3826834323650899 -0.0
  outer loop
    vertex 0.53 0.0 -0.030000000000000002
    vertex 0.37476659402887014 0.3747665940288703 0.0
    vertex 0.37476659402887014 0.3747665940288703 -0.030000000000000002
  endloop
endfacet
facet normal -0.3826834323650895 -0.9238795325112868 -0.0
  outer loop
    vertex 0.37476659402887014 0.3747665940288703 0.0
    vertex -9.735942053221459e-17 0.53 -0.030000000000000002
    vertex 0.37476659402887014 0.3747665940288703 -0.030000000000000002
  endloop
endfacet
facet normal -0.3826834323650895 -0.9238795325112868 -0.0
  outer loop
    vertex -9.735942053221459e-17 0.53 -0.030000000000000002
    vertex 0.37476659402887014 0.3747665940288703 0.0
    vertex -9.735942053221459e-17 0.53 0.0
  endloop
endfacet
facet normal 0.38268343236508984 -0.9238795325112868 -0.0
  outer loop
    vertex -9.735942053221459e-17 0.53 0.0
    vertex -0.3747665940288703 0.3747665940288702 -0.030000000000000002
    vertex -9.735942053221459e-17 0.53 -0.030000000000000002
  endloop
endfacet
facet normal 0.38268343236508984 -0.9238795325112868 -0.0
  outer loop
    vertex -0.3747665940288703 0.3747665940288702 -0.030000000000000002
    vertex -9.735942053221459e-17 0.53 0.0
    vertex -0.3747665940288703 0.3747665940288702 0.0
  endloop
endfacet
facet normal 0.9238795325112868 -0.3826834323650895 -0.0
  outer loop
    vertex -0.3747665940288703 0.3747665940288702 -0.030000000000000002
    vertex -0.53 -6.490628035480972e-17 0.0
    vertex -0.53 -6.490628035480972e-17 -0.030000000000000002
  endloop
endfacet
facet normal 0.9238795325112868 -0.3826834323650895 -0.0
  outer loop
    vertex -0.53 -6.490628035480972e-17 0.0
    vertex -0.3747665940288703 0.3747665940288702 -0.030000000000000002
    vertex -0.3747665940288703 0.3747665940288702 0.0
  endloop
endfacet
facet normal 0.9238795325112867 0.38268343236508984 0.0
  outer loop
    vertex -0.53 -6.490628035480972e-17 -0.030000000000000002
    vertex -0.3747665940288702 -0.37476659402887025 0.0
    vertex -0.3747665940288702 -0.37476659402887025 -0.030000000000000002
  endloop
endfacet
facet normal 0.9238795325112867 0.38268343236508984 0.0
  outer loop
    vertex -0.3747665940288702 -0.37476659402887025 0.0
    vertex -0.53 -6.490628035480972e-17 -0.030000000000000002
    vertex -0.53 -6.490628035480972e-17 0.0
  endloop
endfacet
facet normal 0.3826834323650897 0.9238795325112868 0.0
  outer loop
    vertex -0.3747665940288702 -0.37476659402887025 0.0
    vertex 3.245314017740486e-17 -0.53 -0.030000000000000002
    vertex -0.3747665940288702 -0.37476659402887025 -0.030000000000000002
  endloop
endfacet
facet normal 0.3826834323650897 0.9238795325112868 0.0
  outer loop
    vertex 3.245314017740486e-17 -0.53 -0.030000000000000002
    vertex -0.3747665940288702 -0.37476659402887025 0.0
    vertex 3.245314017740486e-17 -0.53 0.0
  endloop
endfacet
facet normal -0.3826834323650897 0.9238795325112867 -0.0
  outer loop
    vertex 3.245314017740486e-17 -0.53 0.0
    vertex 0.37476659402887025 -0.37476659402887025 -0.030000000000000002
    vertex 3.245314017740486e-17 -0.53 -0.030000000000000002
  endloop
endfacet
facet normal -0.3826834323650897 0.9238795325112867 -0.0
  outer loop
    vertex 0.37476659402887025 -0.37476659402887025 -0.030000000000000002
    vertex 3.245314017740486e-17 -0.53 0.0
    vertex 0.37476659402887025 -0.37476659402887025 0.0
  endloop
endfacet
facet normal 0.3826834323650897 0.923879532511287 0.0
  outer loop
    vertex -5.5109105961630883e-17 0.3 0.0
    vertex 0.2121320343559642 0.21213203435596428 -0.030000000000000002
    vertex -5.5109105961630883e-17 0.3 -0.030000000000000002
  endloop
endfacet
facet normal 0.3826834323650897 0.923879532511287 0.0
  outer loop
    vertex 0.2121320343559642 0.21213203435596428 -0.030000000000000002
    vertex -5.5109105961630883e-17 0.3 0.0
    vertex 0.2121320343559642 0.21213203435596428 0.0
  endloop
endfacet
facet normal 0.9238795325112867 0.3826834323650899 0.0
  outer loop
    vertex 0.2121320343559642 0.21213203435596428 -0.030000000000000002
    vertex 0.3 0.0 0.0
    vertex 0.3 0.0 -0.030000000000000002
  endloop
endfacet
facet normal 0.9238795325112867 0.3826834323650899 0.0
  outer loop
    vertex 0.3 0.0 0.0
    vertex 0.2121320343559642 0.21213203435596428 -0.030000000000000002
    vertex 0.2121320343559642 0.21213203435596428 0.0
  endloop
endfacet
facet normal 0.9238795325112867 -0.38268343236508984 -0.0
  outer loop
    vertex 0.3 0.0 -0.030000000000000002
    vertex 0.21213203435596426 -0.21213203435596426 0.0
    vertex 0.21213203435596426 -0.21213203435596426 -0.030000000000000002
  endloop
endfacet
facet normal 0.9238795325112867 -0.38268343236508984 -0.0
  outer loop
    vertex 0.21213203435596426 -0.21213203435596426 0.0
    vertex 0.3 0.0 -0.030000000000000002
    vertex 0.3 0.0 0.0
  endloop
endfacet
facet normal 0.38268343236508984 -0.9238795325112867 -0.0
  outer loop
    vertex 0.21213203435596426 -0.21213203435596426 0.0
    vertex 1.8369701987210297e-17 -0.3 -0.030000000000000002
    vertex 0.21213203435596426 -0.21213203435596426 -0.030000000000000002
  endloop
endfacet
facet normal 0.38268343236508984 -0.9238795325112867 -0.0
  outer loop
    vertex 1.8369701987210297e-17 -0.3 -0.030000000000000002
    vertex 0.21213203435596426 -0.21213203435596426 0.0
    vertex 1.8369701987210297e-17 -0.3 0.0
  endloop
endfacet
facet normal -0.38268343236508984 -0.9238795325112867 -0.0
  outer loop
    vertex 1.8369701987210297e-17 -0.3 0.0
    vertex -0.21213203435596426 -0.21213203435596426 -0.030000000000000002
    vertex 1.8369701987210297e-17 -0.3 -0.030000000000000002
  endloop
endfacet
facet normal -0.38268343236508984 -0.9238795325112867 -0.0
  outer loop
    vertex -0.21213203435596426 -0.21213203435596426 -0.030000000000000002
    vertex 1.8369701987210297e-17 -0.3 0.0
    vertex -0.21213203435596426 -0.21213203435596426 0.0
  endloop
endfacet
facet normal -0.9238795325112868 -0.38268343236508995 -0.0
  outer loop
    vertex -0.3 -3.6739403974420595e-17 0.0
    vertex -0.21213203435596426 -0.21213203435596426 -0.030000000000000002
    vertex -0.21213203435596426 -0.21213203435596426 0.0
  endloop
endfacet
facet normal -0.9238795325112868 -0.38268343236508995 -0.0
  outer loop
    vertex -0.21213203435596426 -0.21213203435596426 -0.030000000000000002
    vertex -0.3 -3.6739403974420595e-17 0.0
    vertex -0.3 -3.6739403974420595e-17 -0.030000000000000002
  endloop
endfacet
facet normal -0.923879532511287 0.3826834323650896 -0.0
  outer loop
    vertex -0.21213203435596428 0.21213203435596426 0.0
    vertex -0.3 -3.6739403974420595e-17 -0.030000000000000002
    vertex -0.3 -3.6739403974420595e-17 0.0
  endloop
endfacet
facet normal -0.923879532511287 0.3826834323650896 -0.0
  outer loop
    vertex -0.3 -3.6739403974420595e-17 -0.030000000000000002
    vertex -0.21213203435596428 0.21213203435596426 0.0
    vertex -0.21213203435596428 0.21213203435596426 -0.030000000000000002
  endloop
endfacet
facet normal -0.38268343236508984 0.9238795325112867 -0.0
  outer loop
    vertex -0.21213203435596428 0.21213203435596426 0.0
    vertex -5.5109105961630883e-17 0.3 -0.030000000000000002
    vertex -0.21213203435596428 0.21213203435596426 -0.030000000000000002
  endloop
endfacet
facet normal -0.38268343236508984 0.9238795325112867 -0.0
  outer loop
    vertex -5.5109105961630883e-17 0.3 -0.030000000000000002
    vertex -0.21213203435596428 0.21213203435596426 0.0
    vertex -5.5109105961630883e-17 0.3 0.0
  endloop
endfacet
facet normal 0.0 0.0 1.0
  outer loop
    vertex -0.024999999999999988 -0.04330127018922194 -0.02
    vertex -0.025000000000000022 0.043301270189221926 -0.02
    vertex -0.05 -6.1232339957367656e-18 -0.02
  endloop
endfacet
facet normal 0.0 0.0 1.0
  outer loop
    vertex -0.025000000000000022 0.043301270189221926 -0.02
    vertex -0.024999999999999988 -0.04330127018922194 -0.02
    vertex 0.024999999999999967 0.04330127018922195 -0.02
  endloop
endfacet
facet normal 0.0 0.0 1.0
  outer loop
    vertex 0.024999999999999967 0.04330127018922195 -0.02
    vertex -0.024999999999999988 -0.04330127018922194 -0.02
    vertex 0.025000000000000005 -0.04330127018922193 -0.02
  endloop
endfacet
facet normal 0.0 0.0 1.0
  outer loop
    vertex 0.024999999999999967 0.04330127018922195 -0.02
    vertex 0.025000000000000005 -0.04330127018922193 -0.02
    vertex 0.05 0.0 -0.02
  endloop
endfacet
facet normal -0.8660254037844386 -0.5000000000000003 -0.0
  outer loop
    vertex 0.024999999999999967 0.04330127018922195 0.0
    vertex 0.05 0.0 -0.02
    vertex 0.05 0.0 0.0
  endloop
endfacet
facet normal -0.8660254037844386 -0.5000000000000003 -0.0
  outer loop
    vertex 0.05 0.0 -0.02
    vertex 0.024999999999999967 0.04330127018922195 0.0
    vertex 0.024999999999999967 0.04330127018922195 -0.02
  endloop
endfacet
facet normal 5.639932965095796e-16 -1.0 -0.0
  outer loop
    vertex 0.024999999999999967 0.04330127018922195 0.0
    vertex -0.025000000000000022 0.043301270189221926 -0.02
    vertex 0.024999999999999967 0.04330127018922195 -0.02
  endloop
endfacet
facet normal 5.639932965095796e-16 -1.0 -0.0
  outer loop
    vertex -0.025000000000000022 0.043301270189221926 -0.02
    vertex 0.024999999999999967 0.04330127018922195 0.0
    vertex -0.025000000000000022 0.043301270189221926 0.0
  endloop
endfacet
facet normal 0.8660254037844388 -0.49999999999999967 -0.0
  outer loop
    vertex -0.025000000000000022 0.043301270189221926 -0.02
    vertex -0.05 -6.1232339957367656e-18 0.0
    vertex -0.05 -6.1232339957367656e-18 -0.02
  endloop
endfacet
facet normal 0.8660254037844388 -0.49999999999999967 -0.0
  outer loop
    vertex -0.05 -6.1232339957367656e-18 0.0
    vertex -0.025000000000000022 0.043301270189221926 -0.02
    vertex -0.025000000000000022 0.043301270189221926 0.0
  endloop
endfacet
facet normal 0.8660254037844387 0.5000000000000002 0.0
  outer loop
    vertex -0.05 -6.1232339957367656e-18 -0.02
    vertex -0.024999999999999988 -0.04330127018922194 0.0
    vertex -0.024999999999999988 -0.04330127018922194 -0.02
  endloop
endfacet
facet normal 0.8660254037844387 0.5000000000000002 0.0
  outer loop
    vertex -0.024999999999999988 -0.04330127018922194 0.0
    vertex -0.05 -6.1232339957367656e-18 -0.02
    vertex -0.05 -6.1232339957367656e-18 0.0
  endloop
endfacet
facet normal -1.1279865930191593e-16 1.0 -0.0
  outer loop
    vertex -0.024999999999999988 -0.04330127018922194 0.0
    vertex 0.025000000000000005 -0.04330127018922193 -0.02
    vertex -0.024999999999999988 -0.04330127018922194 -0.02
  endloop
endfacet
facet normal -1.1279865930191593e-16 1.0 -0.0
  outer loop
    vertex 0.025000000000000005 -0.04330127018922193 -0.02
    vertex -0.024999999999999988 -0.04330127018922194 0.0
    vertex 0.025000000000000005 -0.04330127018922193 0.0
  endloop
endfacet
facet normal -0.8660254037844387 0.4999999999999999 -0.0
  outer loop
    vertex 0.05 0.0 0.0
    vertex 0.025000000000000005 -0.04330127018922193 -0.02
    vertex 0.025000000000000005 -0.04330127018922193 0.0
  endloop
endfacet
facet normal -0.8660254037844387 0.4999999999999999 -0.0
  outer loop
    vertex 0.025000000000000005 -0.04330127018922193 -0.02
    vertex 0.05 0.0 0.0
    vertex 0.05 0.0 -0.02
  endloop
endfacet
facet normal -0.0 -0.0 1.0
  outer loop
    vertex -0.3747665940288703 0.3747665940288702 0.0
    vertex -0.45840251376169944 0.5290247020479808 0.0
    vertex -0.671645081530148 0.19721278978900078 0.0
  endloop
endfacet
facet normal -0.0 -0.0 1.0
  outer loop
    vertex -0.3747665940288702 -0.37476659402887025 0.0
    vertex -0.6716450815301481 -0.19721278978900056 0.0
    vertex -0.45840251376169955 -0.5290247020479807 0.0
  endloop
endfacet
facet normal -0.0 -0.0 1.0
  outer loop
    vertex -0.09962038679129964 -0.6928750093166529 0.0
    vertex -0.3747665940288702 -0.37476659402887025 0.0
    vertex -0.45840251376169955 -0.5290247020479807 0.0
  endloop
endfacet
facet normal -0.0 -0.0 1.0
  outer loop
    vertex 0.37476659402887014 0.3747665940288703 0.0
    vertex 0.2907905091013205 0.6367423967481628 0.0
    vertex -9.735942053221459e-17 0.53 0.0
  endloop
endfacet
facet normal -0.0 -0.0 1.0
  outer loop
    vertex 0.2907905091013202 -0.636742396748163 0.0
    vertex 3.245314017740486e-17 -0.53 0.0
    vertex -0.09962038679129964 -0.6928750093166529 0.0
  endloop
endfacet
facet normal -0.0 -0.0 1.0
  outer loop
    vertex 0.5888774729818268 -0.3784485722189182 0.0
    vertex 0.37476659402887025 -0.37476659402887025 0.0
    vertex 0.2907905091013202 -0.636742396748163 0.0
  endloop
endfacet
facet normal -0.0 -0.0 1.0
  outer loop
    vertex 0.37476659402887025 -0.37476659402887025 0.0
    vertex 3.245314017740486e-17 -0.53 0.0
    vertex 0.2907905091013202 -0.636742396748163 0.0
  endloop
endfacet
facet normal -0.0 -0.0 1.0
  outer loop
    vertex 3.245314017740486e-17 -0.53 0.0
    vertex -0.3747665940288702 -0.37476659402887025 0.0
    vertex -0.09962038679129964 -0.6928750093166529 0.0
  endloop
endfacet
facet normal -0.0 -0.0 1.0
  outer loop
    vertex 0.7 0.0 0.0
    vertex 0.53 0.0 0.0
    vertex 0.5888774729818268 -0.3784485722189182 0.0
  endloop
endfacet
facet normal -0.0 -0.0 1.0
  outer loop
    vertex 0.5888774729818268 -0.3784485722189182 0.0
    vertex 0.53 0.0 0.0
    vertex 0.37476659402887025 -0.37476659402887025 0.0
  endloop
endfacet
facet normal -0.0 -0.0 1.0
  outer loop
    vertex 0.7 0.0 0.0
    vertex 0.5888774729818268 0.3784485722189183 0.0
    vertex 0.53 0.0 0.0
  endloop
endfacet
facet normal -0.0 -0.0 1.0
  outer loop
    vertex 0.5888774729818268 0.3784485722189183 0.0
    vertex 0.37476659402887014 0.3747665940288703 0.0
    vertex 0.53 0.0 0.0
  endloop
endfacet
facet normal -0.0 -0.0 1.0
  outer loop
    vertex 0.5888774729818268 0.3784485722189183 0.0
    vertex 0.2907905091013205 0.6367423967481628 0.0
    vertex 0.37476659402887014 0.3747665940288703 0.0
  endloop
endfacet
facet normal -0.0 -0.0 1.0
  outer loop
    vertex -9.735942053221459e-17 0.53 0.0
    vertex -0.09962038679129949 0.692875009316653 0.0
    vertex -0.45840251376169944 0.5290247020479808 0.0
  endloop
endfacet
facet normal -0.0 -0.0 1.0
  outer loop
    vertex 0.2907905091013205 0.6367423967481628 0.0
    vertex -0.09962038679129949 0.692875009316653 0.0
    vertex -9.735942053221459e-17 0.53 0.0
  endloop
endfacet
facet normal -0.0 -0.0 1.0
  outer loop
    vertex -9.735942053221459e-17 0.53 0.0
    vertex -0.45840251376169944 0.5290247020479808 0.0
    vertex -0.3747665940288703 0.3747665940288702 0.0
  endloop
endfacet
facet normal -0.0 -0.0 1.0
  outer loop
    vertex -0.53 -6.490628035480972e-17 0.0
    vertex -0.671645081530148 0.19721278978900078 0.0
    vertex -0.6716450815301481 -0.19721278978900056 0.0
  endloop
endfacet
facet normal -0.0 -0.0 1.0
  outer loop
    vertex -0.3747665940288703 0.3747665940288702 0.0
    vertex -0.671645081530148 0.19721278978900078 0.0
    vertex -0.53 -6.490628035480972e-17 0.0
  endloop
endfacet
facet normal -0.0 -0.0 1.0
  outer loop
    vertex -0.21213203435596426 -0.21213203435596426 0.0
    vertex -0.05 -6.1232339957367656e-18 0.0
    vertex -0.3 -3.6739403974420595e-17 0.0
  endloop
endfacet
facet normal -0.0 -0.0 1.0
  outer loop
    vertex -0.05 -6.1232339957367656e-18 0.0
    vertex -0.21213203435596426 -0.21213203435596426 0.0
    vertex -0.024999999999999988 -0.04330127018922194 0.0
  endloop
endfacet
facet normal -0.0 -0.0 1.0
  outer loop
    vertex 1.8369701987210297e-17 -0.3 0.0
    vertex -0.024999999999999988 -0.04330127018922194 0.0
    vertex -0.21213203435596426 -0.21213203435596426 0.0
  endloop
endfacet
facet normal -0.0 -0.0 1.0
  outer loop
    vertex -0.024999999999999988 -0.04330127018922194 0.0
    vertex 1.8369701987210297e-17 -0.3 0.0
    vertex 0.025000000000000005 -0.04330127018922193 0.0
  endloop
endfacet
facet normal -0.0 -0.0 1.0
  outer loop
    vertex 0.3 0.0 0.0
    vertex 0.025000000000000005 -0.04330127018922193 0.0
    vertex 0.21213203435596426 -0.21213203435596426 0.0
  endloop
endfacet
facet normal -0.0 -0.0 1.0
  outer loop
    vertex 0.21213203435596426 -0.21213203435596426 0.0
    vertex 0.025000000000000005 -0.04330127018922193 0.0
    vertex 1.8369701987210297e-17 -0.3 0.0
  endloop
endfacet
facet normal -0.0 -0.0 1.0
  outer loop
    vertex 0.024999999999999967 0.04330127018922195 0.0
    vertex -5.5109105961630883e-17 0.3 0.0
    vertex -0.025000000000000022 0.043301270189221926 0.0
  endloop
endfacet
facet normal -0.0 -0.0 1.0
  outer loop
    vertex 0.3 0.0 0.0
    vertex 0.05 0.0 0.0
    vertex 0.025000000000000005 -0.04330127018922193 0.0
  endloop
endfacet
facet normal -0.0 -0.0 1.0
  outer loop
    vertex 0.05 0.0 0.0
    vertex 0.3 0.0 0.0
    vertex 0.2121320343559642 0.21213203435596428 0.0
  endloop
endfacet
facet normal -0.0 -0.0 1.0
  outer loop
    vertex -5.5109105961630883e-17 0.3 0.0
    vertex -0.21213203435596428 0.21213203435596426 0.0
    vertex -0.025000000000000022 0.043301270189221926 0.0
  endloop
endfacet
facet normal -0.0 -0.0 1.0
  outer loop
    vertex 0.024999999999999967 0.04330127018922195 0.0
    vertex 0.2121320343559642 0.21213203435596428 0.0
    vertex -5.5109105961630883e-17 0.3 0.0
  endloop
endfacet
facet normal -0.0 -0.0 1.0
  outer loop
    vertex 0.2121320343559642 0.21213203435596428 0.0
    vertex 0.024999999999999967 0.04330127018922195 0.0
    vertex 0.05 0.0 0.0
  endloop
endfacet
facet normal -0.0 -0.0 1.0
  outer loop
    vertex -0.3747665940288702 -0.37476659402887025 -0.030000000000000002
    vertex -0.3 -3.6739403974420595e-17 -0.030000000000000002
    vertex -0.53 -6.490628035480972e-17 -0.030000000000000002
  endloop
endfacet
facet normal -0.0 -0.0 1.0
  outer loop
    vertex -0.3 -3.6739403974420595e-17 -0.030000000000000002
    vertex -0.3747665940288702 -0.37476659402887025 -0.030000000000000002
    vertex -0.21213203435596426 -0.21213203435596426 -0.030000000000000002
  endloop
endfacet
facet normal -0.0 -0.0 1.0
  outer loop
    vertex -0.21213203435596426 -0.21213203435596426 -0.030000000000000002
    vertex -0.3747665940288702 -0.37476659402887025 -0.030000000000000002
    vertex 3.245314017740486e-17 -0.53 -0.030000000000000002
  endloop
endfacet
facet normal -0.0 -0.0 1.0
  outer loop
    vertex 3.245314017740486e-17 -0.53 -0.030000000000000002
    vertex 1.8369701987210297e-17 -0.3 -0.030000000000000002
    vertex -0.21213203435596426 -0.21213203435596426 -0.030000000000000002
  endloop
endfacet
facet normal -0.0 -0.0 1.0
  outer loop
    vertex 1.8369701987210297e-17 -0.3 -0.030000000000000002
    vertex 3.245314017740486e-17 -0.53 -0.030000000000000002
    vertex 0.21213203435596426 -0.21213203435596426 -0.030000000000000002
  endloop
endfacet
facet normal -0.0 -0.0 1.0
  outer loop
    vertex 0.21213203435596426 -0.21213203435596426 -0.030000000000000002
    vertex 3.245314017740486e-17 -0.53 -0.030000000000000002
    vertex 0.37476659402887025 -0.37476659402887025 -0.030000000000000002
  endloop
endfacet
facet normal -0.0 -0.0 1.0
  outer loop
    vertex 0.21213203435596426 -0.21213203435596426 -0.030000000000000002
    vertex 0.37476659402887025 -0.37476659402887025 -0.030000000000000002
    vertex 0.3 0.0 -0.030000000000000002
  endloop
endfacet
facet normal -0.0 -0.0 1.0
  outer loop
    vertex 0.3 0.0 -0.030000000000000002
    vertex 0.37476659402887025 -0.37476659402887025 -0.030000000000000002
    vertex 0.37476659402887014 0.3747665940288703 -0.030000000000000002
  endloop
endfacet
facet normal -0.0 -0.0 1.0
  outer loop
    vertex 0.37476659402887014 0.3747665940288703 -0.030000000000000002
    vertex 0.37476659402887025 -0.37476659402887025 -0.030000000000000002
    vertex 0.53 0.0 -0.030000000000000002
  endloop
endfacet
facet normal -0.0 -0.0 1.0
  outer loop
    vertex 0.2121320343559642 0.21213203435596428 -0.030000000000000002
    vertex 0.37476659402887014 0.3747665940288703 -0.030000000000000002
    vertex -5.5109105961630883e-17 0.3 -0.030000000000000002
  endloop
endfacet
facet normal -0.0 -0.0 1.0
  outer loop
    vertex 0.37476659402887014 0.3747665940288703 -0.030000000000000002
    vertex 0.2121320343559642 0.21213203435596428 -0.030000000000000002
    vertex 0.3 0.0 -0.030000000000000002
  endloop
endfacet
facet normal -0.0 -0.0 1.0
  outer loop
    vertex -0.3 -3.6739403974420595e-17 -0.030000000000000002
    vertex -0.3747665940288703 0.3747665940288702 -0.030000000000000002
    vertex -0.53 -6.490628035480972e-17 -0.030000000000000002
  endloop
endfacet
facet normal -0.0 -0.0 1.0
  outer loop
    vertex -0.3747665940288703 0.3747665940288702 -0.030000000000000002
    vertex -0.3 -3.6739403974420595e-17 -0.030000000000000002
    vertex -0.21213203435596428 0.21213203435596426 -0.030000000000000002
  endloop
endfacet
facet normal -0.0 -0.0 1.0
  outer loop
    vertex -0.3747665940288703 0.3747665940288702 -0.030000000000000002
    vertex -0.21213203435596428 0.21213203435596426 -0.030000000000000002
    vertex -9.735942053221459e-17 0.53 -0.030000000000000002
  endloop
endfacet
endsolid Untitled
